<?xml version="1.0" encoding="iso-8859-1"?>
<!-- Uploaded to: SVG Repo, www.svgrepo.com, Generator: SVG Repo Mixer Tools -->
<svg height="800px" width="800px" version="1.1" id="Layer_1" xmlns="http://www.w3.org/2000/svg" xmlns:xlink="http://www.w3.org/1999/xlink" 
	 viewBox="0 0 512 512" xml:space="preserve">
<g>
	<polygon style="fill:#009FD3;" points="468.464,203.992 479.999,197.334 479.999,139.993 255.999,10.669 122.664,87.648 
		122.664,87.648 32.002,139.993 32.002,197.334 43.533,203.992 43.533,256.002 43.533,378.669 149.769,440 255.999,501.335 
		362.232,440 468.464,378.669 468.464,256.002 	"/>
	<g>
		<polygon style="fill:#FF2C47;" points="255.995,115.361 165.33,63.016 143.999,75.333 122.664,87.648 213.33,139.993 		"/>
		<polygon style="fill:#FF2C47;" points="213.33,139.993 122.668,192.339 143.999,204.657 165.33,216.972 255.995,164.627 
			298.663,139.997 389.332,87.648 368.001,75.333 346.663,63.016 255.995,115.361 		"/>
		<polygon style="fill:#FF2C47;" points="255.995,164.627 346.663,216.972 368.001,204.657 389.328,192.339 298.663,139.997 		"/>
		<polygon style="fill:#FF2C47;" points="389.328,249.678 389.328,192.339 368.001,204.657 346.663,216.972 346.663,274.311 
			368.001,261.997 382.704,253.505 		"/>
		<polygon style="fill:#FF2C47;" points="165.33,274.311 165.33,216.972 143.999,204.657 122.668,192.339 122.668,249.678 
			129.291,253.505 143.999,261.999 		"/>
		<polygon style="fill:#FF2C47;" points="171.96,336.803 171.96,278.136 165.33,274.311 143.999,261.999 129.291,253.505 
			129.291,310.845 142.558,305.746 		"/>
		<polygon style="fill:#FF2C47;" points="340.04,336.803 340.04,278.136 346.668,274.311 368.001,261.999 382.707,253.505 
			382.707,310.845 369.441,305.746 		"/>
	</g>
</g>
<g>
	<path style="fill:#000003;" d="M79.94,155.352l-5.143-2.971c-5.1-2.948-11.625-1.2-14.571,3.901
		c-2.948,5.101-1.2,11.625,3.9,14.572l5.143,2.971c1.679,0.971,3.515,1.433,5.325,1.433c3.685,0,7.27-1.913,9.246-5.333
		C86.788,164.823,85.039,158.3,79.94,155.352z"/>
	<path style="fill:#000003;" d="M490.659,139.902c-0.002-0.436-0.029-0.871-0.085-1.309c-0.004-0.023-0.011-0.048-0.013-0.071
		c-0.057-0.394-0.138-0.784-0.238-1.174c-0.025-0.105-0.057-0.206-0.085-0.31c-0.092-0.314-0.197-0.624-0.319-0.932
		c-0.039-0.102-0.077-0.204-0.118-0.305c-0.166-0.386-0.348-0.768-0.564-1.14c-0.214-0.372-0.452-0.72-0.704-1.055
		c-0.067-0.091-0.14-0.176-0.21-0.265c-0.204-0.254-0.417-0.498-0.64-0.731c-0.077-0.081-0.155-0.161-0.236-0.241
		c-0.279-0.274-0.569-0.532-0.875-0.771c-0.027-0.022-0.052-0.045-0.079-0.067c-0.346-0.265-0.706-0.502-1.077-0.721
		c-0.029-0.017-0.054-0.038-0.083-0.055l-224-129.323c-3.3-1.906-7.366-1.906-10.667,0l-133.577,77.12
		c-0.002,0.002-0.006,0.004-0.009,0.005l-90.413,52.199c-3.3,1.905-5.333,5.427-5.333,9.237v57.343c0,3.81,2.033,7.332,5.333,9.237
		l6.198,3.579v168.518c0,3.81,2.033,7.332,5.333,9.237l212.467,122.665c0.027,0.016,0.059,0.026,0.085,0.042
		c0.378,0.213,0.767,0.409,1.171,0.576c0.027,0.012,0.057,0.019,0.083,0.031c0.363,0.147,0.737,0.27,1.119,0.378
		c0.107,0.029,0.212,0.055,0.321,0.082c0.313,0.077,0.634,0.14,0.956,0.189c0.111,0.017,0.221,0.036,0.332,0.05
		C255.15,511.968,255.57,512,256,512c0.431,0,0.852-0.032,1.268-0.082c0.111-0.014,0.219-0.033,0.33-0.05
		c0.325-0.049,0.644-0.111,0.958-0.189c0.109-0.027,0.214-0.053,0.321-0.082c0.381-0.108,0.754-0.23,1.119-0.378
		c0.027-0.012,0.057-0.019,0.083-0.031c0.404-0.167,0.794-0.363,1.171-0.576c0.027-0.016,0.057-0.026,0.083-0.042l212.465-122.665
		c3.3-1.905,5.333-5.427,5.333-9.237V210.152l6.202-3.581c3.3-1.905,5.333-5.427,5.333-9.237v-57.342
		C490.665,139.962,490.661,139.932,490.659,139.902z M469.332,191.175l-5.952,3.438c-0.002,0-0.002,0-0.002,0l-42.652,24.626
		c-0.017,0.009-0.031,0.019-0.048,0.027l-20.684,11.941v-32.709l69.337-40.031V191.175z M372.037,295.408
		c-3.707-0.934-7.673,0.182-10.346,3.005l-10.988,11.607v-25.72l21.333-12.317V295.408z M175.997,268.153v-32.708l69.335,40.031
		v32.708L175.997,268.153z M161.293,310.02l-10.99-11.607c-2.671-2.822-6.642-3.939-10.346-3.005v-23.428l21.335,12.318V310.02z
		 M133.335,243.522v-32.708l21.329,12.315v32.708L133.335,243.522z M266.652,269.032c-0.004-0.215-0.013-0.431-0.031-0.645
		c-0.015-0.163-0.037-0.324-0.059-0.485c-0.022-0.175-0.048-0.349-0.079-0.523c-0.035-0.187-0.077-0.37-0.121-0.553
		c-0.035-0.147-0.07-0.293-0.112-0.438c-0.054-0.192-0.116-0.379-0.181-0.566c-0.048-0.139-0.098-0.277-0.151-0.414
		c-0.068-0.178-0.146-0.352-0.225-0.525c-0.067-0.147-0.135-0.291-0.21-0.435c-0.077-0.153-0.16-0.301-0.244-0.448
		c-0.092-0.159-0.188-0.316-0.286-0.469c-0.081-0.125-0.166-0.246-0.252-0.369c-0.116-0.164-0.238-0.327-0.363-0.485
		c-0.085-0.107-0.173-0.209-0.26-0.311c-0.138-0.159-0.277-0.314-0.422-0.465c-0.098-0.101-0.198-0.198-0.3-0.294
		c-0.144-0.137-0.288-0.271-0.439-0.4c-0.129-0.109-0.26-0.211-0.394-0.315c-0.135-0.105-0.269-0.207-0.411-0.306
		c-0.171-0.119-0.348-0.231-0.527-0.341c-0.085-0.051-0.162-0.111-0.25-0.16l-74.667-43.109l69.329-40.027l69.335,40.027
		l-14.406,8.318c-5.102,2.945-6.852,9.468-3.906,14.57c1.975,3.423,5.561,5.337,9.248,5.337c1.808,0,3.644-0.462,5.323-1.431
		L336,235.447v32.711l-69.331,40.028v-38.867C266.666,269.221,266.656,269.128,266.652,269.032z M458.665,139.993l-69.337,40.031
		l-69.333-40.029l69.337-40.031L458.665,139.993z M377.626,244.122c-0.009,0.005-0.017,0.011-0.025,0.015l-20.271,11.703v-32.71
		l21.331-12.316v32.71L377.626,244.122z M298.661,152.311l69.333,40.029l-21.331,12.315l-69.333-40.027L298.661,152.311z
		 M255.999,22.985l112,64.661L165.333,204.654l-21.331-12.316l74.568-43.055c0.013-0.006,0.022-0.013,0.033-0.019l42.604-24.599
		c0.033-0.018,0.065-0.037,0.096-0.057L284.3,111.33c5.102-2.946,6.85-9.47,3.904-14.571c-2.944-5.101-9.467-6.85-14.571-3.904
		l-17.642,10.187l-69.329-40.028L255.999,22.985z M165.33,75.332l69.331,40.028l-21.331,12.316l-69.331-40.027L165.33,75.332z
		 M42.668,146.15l79.998-46.186l69.331,40.027l-69.329,40.03l-15.404-8.894c-5.102-2.945-11.625-1.197-14.571,3.904
		c-2.946,5.101-1.198,11.624,3.904,14.571l15.404,8.894v32.707l-69.333-40.029L42.668,146.15L42.668,146.15z M457.797,372.51
		L266.666,482.859v-85.432c0-5.891-4.775-10.667-10.667-10.667c-5.889,0-10.667,4.775-10.667,10.667v85.432L54.2,372.51V222.467
		l64.424,37.195v51.183c0,0.087,0.011,0.172,0.013,0.259c0.006,0.221,0.015,0.442,0.033,0.662c0.015,0.157,0.033,0.313,0.054,0.467
		c0.025,0.183,0.05,0.367,0.083,0.549c0.037,0.196,0.081,0.387,0.127,0.579c0.035,0.14,0.068,0.279,0.109,0.419
		c0.065,0.226,0.14,0.447,0.219,0.667c0.027,0.075,0.044,0.15,0.073,0.224c0.015,0.038,0.033,0.074,0.05,0.111
		c0.085,0.219,0.183,0.432,0.284,0.644c0.057,0.116,0.111,0.235,0.169,0.349c0.094,0.176,0.194,0.347,0.295,0.517
		c0.083,0.141,0.164,0.283,0.254,0.418c0.085,0.129,0.177,0.253,0.269,0.379c0.116,0.161,0.234,0.324,0.358,0.478
		c0.077,0.095,0.16,0.183,0.24,0.275c0.148,0.17,0.295,0.339,0.454,0.499c0.077,0.079,0.162,0.153,0.242,0.229
		c0.166,0.157,0.334,0.315,0.509,0.461c0.098,0.083,0.204,0.158,0.306,0.238c0.164,0.127,0.327,0.255,0.498,0.372
		c0.133,0.092,0.273,0.173,0.409,0.258c0.15,0.092,0.295,0.188,0.45,0.272c0.162,0.091,0.332,0.171,0.5,0.252
		c0.138,0.068,0.273,0.138,0.413,0.198c0.175,0.076,0.356,0.142,0.535,0.208c0.144,0.054,0.288,0.111,0.433,0.158
		c0.166,0.054,0.335,0.097,0.505,0.143c0.173,0.047,0.343,0.096,0.518,0.133c0.142,0.031,0.286,0.053,0.429,0.078
		c0.21,0.036,0.422,0.073,0.638,0.097c0.116,0.014,0.236,0.02,0.354,0.029c0.242,0.019,0.483,0.034,0.727,0.036
		c0.039,0.001,0.079,0.006,0.118,0.006c0.077,0,0.153-0.01,0.227-0.012c0.236-0.005,0.47-0.015,0.708-0.035
		c0.146-0.013,0.288-0.032,0.433-0.051c0.192-0.025,0.383-0.052,0.577-0.087c0.19-0.035,0.374-0.078,0.56-0.123
		c0.144-0.035,0.288-0.069,0.433-0.111c0.223-0.065,0.444-0.139,0.66-0.217c0.075-0.027,0.153-0.045,0.225-0.074l6.604-2.538
		l24.494,25.872c0.031,0.033,0.067,0.063,0.1,0.096c0.15,0.154,0.308,0.298,0.467,0.443c0.109,0.101,0.217,0.205,0.33,0.3
		c0.155,0.13,0.319,0.249,0.481,0.37c0.125,0.094,0.245,0.193,0.373,0.281c0.166,0.112,0.341,0.212,0.514,0.317
		c0.129,0.078,0.256,0.163,0.387,0.236c0.306,0.166,0.623,0.319,0.946,0.457c0.027,0.012,0.057,0.019,0.083,0.03
		c0.3,0.124,0.606,0.238,0.918,0.334c0.054,0.017,0.109,0.026,0.162,0.042c0.286,0.083,0.573,0.16,0.867,0.22
		c0.1,0.02,0.201,0.028,0.3,0.046c0.247,0.043,0.496,0.086,0.75,0.111c0.321,0.032,0.645,0.046,0.971,0.049
		c0.031,0.001,0.063,0.005,0.096,0.005l0,0c0.002,0,0.002,0,0.002,0c0.346,0,0.691-0.019,1.036-0.052
		c0.135-0.014,0.265-0.037,0.398-0.055c0.206-0.028,0.413-0.055,0.619-0.095c0.155-0.03,0.306-0.07,0.459-0.109
		c0.179-0.044,0.358-0.085,0.538-0.138c0.155-0.046,0.304-0.101,0.457-0.155c0.171-0.06,0.341-0.118,0.511-0.188
		c0.148-0.06,0.291-0.127,0.435-0.194c0.166-0.076,0.334-0.154,0.496-0.239c0.142-0.074,0.279-0.156,0.417-0.236
		c0.156-0.092,0.313-0.182,0.465-0.283c0.14-0.093,0.275-0.191,0.411-0.29c0.14-0.101,0.282-0.202,0.417-0.31
		c0.14-0.112,0.275-0.233,0.409-0.351c0.09-0.078,0.181-0.148,0.269-0.23c0.035-0.033,0.064-0.069,0.098-0.103
		c0.138-0.134,0.269-0.276,0.4-0.419c0.111-0.119,0.225-0.239,0.33-0.363c0.111-0.131,0.212-0.271,0.317-0.407
		c0.111-0.144,0.223-0.285,0.323-0.431c0.09-0.129,0.166-0.265,0.25-0.398c0.1-0.161,0.204-0.321,0.295-0.486
		c0.077-0.14,0.142-0.285,0.212-0.428c0.081-0.164,0.166-0.327,0.24-0.496c0.069-0.161,0.127-0.33,0.19-0.496
		c0.057-0.156,0.121-0.309,0.171-0.468c0.057-0.175,0.098-0.355,0.146-0.533c0.042-0.157,0.085-0.313,0.121-0.47
		c0.035-0.171,0.061-0.345,0.09-0.518c0.027-0.174,0.059-0.347,0.079-0.521c0.017-0.159,0.025-0.321,0.035-0.482
		c0.015-0.195,0.027-0.388,0.029-0.585c0.002-0.047,0.009-0.093,0.009-0.141v-40.189l68.039,39.283
		c0.027,0.016,0.059,0.027,0.085,0.042c0.378,0.213,0.767,0.409,1.171,0.576c0.027,0.012,0.057,0.02,0.083,0.031
		c0.363,0.147,0.737,0.27,1.119,0.378c0.107,0.029,0.212,0.055,0.321,0.082c0.313,0.077,0.634,0.14,0.956,0.189
		c0.111,0.017,0.221,0.036,0.332,0.05c0.417,0.05,0.837,0.082,1.267,0.082c0.431,0,0.852-0.032,1.268-0.082
		c0.111-0.014,0.219-0.033,0.33-0.05c0.325-0.049,0.644-0.111,0.958-0.189c0.109-0.027,0.214-0.053,0.321-0.082
		c0.381-0.108,0.754-0.23,1.119-0.378c0.027-0.012,0.057-0.019,0.083-0.031c0.404-0.167,0.794-0.363,1.171-0.576
		c0.027-0.016,0.057-0.026,0.083-0.042l68.037-39.28V336.8c0,0.048,0.006,0.094,0.006,0.141c0.004,0.196,0.017,0.389,0.029,0.585
		c0.013,0.161,0.018,0.323,0.037,0.482c0.019,0.174,0.05,0.347,0.079,0.521c0.029,0.174,0.052,0.348,0.09,0.518
		c0.033,0.159,0.079,0.314,0.121,0.47c0.048,0.178,0.09,0.358,0.146,0.533c0.05,0.158,0.112,0.313,0.171,0.468
		c0.063,0.166,0.118,0.335,0.19,0.496c0.07,0.169,0.158,0.332,0.238,0.496c0.07,0.144,0.138,0.289,0.214,0.428
		c0.09,0.165,0.194,0.325,0.296,0.486c0.081,0.133,0.16,0.269,0.25,0.398c0.1,0.147,0.212,0.288,0.321,0.431
		c0.105,0.137,0.206,0.276,0.319,0.407c0.105,0.124,0.217,0.243,0.33,0.363c0.131,0.143,0.26,0.285,0.4,0.419
		c0.033,0.033,0.063,0.069,0.098,0.103c0.087,0.082,0.181,0.154,0.271,0.233c0.131,0.117,0.265,0.236,0.404,0.347
		c0.14,0.112,0.282,0.215,0.425,0.319c0.133,0.096,0.262,0.191,0.4,0.281c0.157,0.103,0.319,0.197,0.481,0.291
		c0.131,0.077,0.262,0.156,0.398,0.226c0.169,0.09,0.341,0.169,0.512,0.247c0.14,0.064,0.277,0.128,0.419,0.187
		c0.175,0.07,0.35,0.131,0.527,0.193c0.148,0.051,0.293,0.105,0.442,0.149c0.183,0.054,0.367,0.097,0.55,0.142
		c0.15,0.035,0.295,0.075,0.448,0.106c0.208,0.041,0.419,0.068,0.629,0.096c0.129,0.018,0.256,0.042,0.387,0.054
		c0.346,0.033,0.691,0.052,1.038,0.052l0,0c0.002,0,0.002,0,0.002,0c0.031,0,0.063-0.004,0.096-0.005
		c0.325-0.002,0.647-0.017,0.971-0.049c0.252-0.025,0.498-0.068,0.743-0.11c0.102-0.018,0.204-0.027,0.306-0.047
		c0.29-0.059,0.571-0.134,0.852-0.215c0.059-0.018,0.118-0.028,0.177-0.046c0.298-0.092,0.59-0.202,0.875-0.318
		c0.044-0.018,0.087-0.029,0.129-0.047c0.321-0.137,0.636-0.289,0.942-0.454c0.144-0.078,0.282-0.171,0.421-0.256
		c0.16-0.098,0.325-0.191,0.479-0.295c0.133-0.091,0.26-0.194,0.391-0.291c0.157-0.117,0.315-0.233,0.465-0.357
		c0.114-0.097,0.225-0.204,0.335-0.306c0.158-0.144,0.315-0.286,0.463-0.438c0.031-0.033,0.067-0.062,0.1-0.096l24.492-25.872
		l6.603,2.538c0.079,0.03,0.158,0.049,0.238,0.077c0.212,0.076,0.427,0.149,0.645,0.212c0.148,0.043,0.295,0.078,0.446,0.114
		c0.181,0.044,0.363,0.085,0.548,0.119c0.196,0.036,0.389,0.064,0.586,0.09c0.142,0.018,0.285,0.037,0.429,0.05
		c0.236,0.021,0.47,0.03,0.704,0.035c0.077,0.001,0.155,0.012,0.231,0.012c0.042,0,0.079-0.005,0.121-0.006
		c0.24-0.002,0.477-0.017,0.717-0.036c0.123-0.01,0.245-0.016,0.367-0.029c0.208-0.023,0.415-0.06,0.619-0.095
		c0.15-0.026,0.3-0.049,0.448-0.081c0.166-0.036,0.331-0.083,0.496-0.127c0.177-0.048,0.354-0.093,0.527-0.149
		c0.138-0.045,0.273-0.099,0.409-0.15c0.188-0.069,0.377-0.138,0.56-0.217c0.131-0.059,0.26-0.125,0.389-0.189
		c0.175-0.085,0.352-0.167,0.521-0.262c0.15-0.082,0.291-0.175,0.437-0.266c0.142-0.086,0.284-0.17,0.421-0.263
		c0.171-0.117,0.334-0.245,0.498-0.373c0.1-0.079,0.206-0.154,0.304-0.236c0.179-0.149,0.348-0.309,0.516-0.469
		c0.077-0.074,0.158-0.143,0.231-0.218c0.162-0.164,0.317-0.339,0.468-0.514c0.075-0.086,0.153-0.17,0.225-0.258
		c0.129-0.16,0.25-0.329,0.371-0.497c0.085-0.118,0.175-0.237,0.256-0.359c0.094-0.142,0.179-0.289,0.264-0.436
		c0.098-0.164,0.196-0.329,0.284-0.497c0.063-0.121,0.121-0.245,0.179-0.369c0.098-0.205,0.192-0.413,0.277-0.625
		c0.015-0.039,0.035-0.076,0.05-0.116c0.031-0.077,0.05-0.157,0.077-0.235c0.077-0.214,0.15-0.43,0.214-0.651
		c0.042-0.144,0.075-0.288,0.111-0.432c0.046-0.188,0.09-0.375,0.125-0.566c0.033-0.187,0.061-0.373,0.083-0.558
		c0.021-0.154,0.042-0.305,0.054-0.46c0.019-0.224,0.029-0.447,0.033-0.67c0.002-0.085,0.013-0.169,0.013-0.255v-51.18
		l21.762-12.564v33.477c0,5.89,4.775,10.667,10.667,10.667c5.89,0,10.667-4.777,10.667-10.667v-45.794l21.331-12.316V372.51H457.797
		z"/>
	<path style="fill:#000003;" d="M284.274,263.663c1.806,0,3.639-0.461,5.318-1.428l5.091-2.937c5.102-2.944,6.854-9.467,3.91-14.57
		c-2.944-5.102-9.465-6.854-14.568-3.911l-5.091,2.937c-5.104,2.944-6.854,9.467-3.913,14.57
		C277,261.747,280.585,263.663,284.274,263.663z"/>
	<path style="fill:#000003;" d="M305.85,97.249c1.81,0,3.644-0.462,5.323-1.431l5.504-3.178c5.102-2.945,6.85-9.469,3.904-14.571
		c-2.944-5.1-9.467-6.849-14.571-3.904l-5.504,3.178c-5.102,2.945-6.85,9.469-3.904,14.571
		C298.576,95.337,302.162,97.249,305.85,97.249z"/>
	<path style="fill:#000003;" d="M255.999,349.046c-5.889,0-10.667,4.777-10.667,10.667v6.399c0,5.89,4.778,10.667,10.667,10.667
		c5.891,0,10.667-4.777,10.667-10.667v-6.399C266.666,353.822,261.891,349.046,255.999,349.046z"/>
	<path style="fill:#000003;" d="M425.799,301.226c-5.891,0-10.667,4.777-10.667,10.667v6.4c0,5.89,4.775,10.667,10.667,10.667
		c5.89,0,10.667-4.777,10.667-10.667v-6.4C436.466,306.003,431.688,301.226,425.799,301.226z"/>
</g>
</svg>