<?xml version="1.0" ?>
<svg viewBox="0 0 328.9 439.71" xmlns="http://www.w3.org/2000/svg"><defs>
<style>.cls-1{fill:#173156;}</style></defs><title/><g data-name="Capa 2" id="Capa_2">
<g id="Outline"><g id="CoffeeCup">
<path class="cls-1" d="M320.4,94.61H307.46l-8.74-48.56a8.51,8.51,0,0,0-8.37-7h-8.1l-7.66-32.5A8.51,8.51,0,0,0,263.71.41L206.1,19a8.5,8.5,0,0,0-5.89,8.09v12H38.55a8.5,8.5,0,0,0-8.36,7L21.45,94.61H8.5a8.51,8.51,0,0,0-8.5,8.5v46.68a8.51,8.51,0,0,0,8.5,8.5H19.94l34.28,274a8.5,8.5,0,0,0,8.43,7.45h203.6a8.51,8.51,0,0,0,8.44-7.45l34.28-274H320.4a8.5,8.5,0,0,0,8.5-8.5V103.11A8.5,8.5,0,0,0,320.4,94.61ZM217.21,33.27l43-13.85,4.63,19.63H217.21ZM45.66,56.05H283.24l6.94,38.56H38.72ZM267.2,355.19H61.71L48.46,249.28h232Zm-8.45,67.52H70.16l-7.58-60.52H266.32Zm22.57-180.43H47.58l-10.51-84H291.83Zm30.58-101H17V111.61H311.9Z"/><path class="cls-1" d="M178.58,274.16a4,4,0,0,1-1.08,1.47c-5.46,4.7-6.08,12.85-6.79,22.28-.83,10.92-1.76,23.2-10.28,33.93,10.2,0,21-8.17,26.29-20.88C193,295.88,189.35,279.83,178.58,274.16Z"/><path class="cls-1" d="M170.89,271.15c-10,.35-20.49,8.41-25.71,20.87-6.27,15-2.68,30.92,7.94,36.69a3.75,3.75,0,0,1,.73-1.11c8.39-9.14,9.24-20.39,10.07-31.27C164.61,287.29,165.31,278,170.89,271.15Z"/></g></g></g></svg>